<?xml version="1.0" standalone="no"?>
<!DOCTYPE svg PUBLIC "-//W3C//DTD SVG 20010904//EN"
 "http://www.w3.org/TR/2001/REC-SVG-20010904/DTD/svg10.dtd">
<svg version="1.0" xmlns="http://www.w3.org/2000/svg"
 width="512.000000pt" height="512.000000pt" viewBox="0 0 512.000000 512.000000"
 preserveAspectRatio="xMidYMid meet">
<metadata>
Created by potrace 1.11, written by Peter Selinger 2001-2013
</metadata>
<g transform="translate(0.000000,512.000000) scale(0.100000,-0.100000)"
fill="#000000" stroke="none">
<path d="M2557 3163 c-2 -4 -5 -37 -6 -71 -1 -35 -4 -72 -6 -82 -2 -10 -7 -74
-10 -142 -4 -67 -10 -126 -14 -129 -3 -3 -37 -16 -76 -28 -38 -12 -85 -34
-103 -48 -19 -14 -46 -26 -60 -26 -34 0 -285 13 -336 19 -85 8 -14 -17 134
-47 85 -18 157 -34 159 -35 2 -2 -3 -14 -12 -28 -29 -44 -57 -144 -57 -205 0
-215 173 -391 385 -392 87 0 103 4 179 39 186 87 269 300 194 499 -10 29 -24
55 -29 58 -5 4 -9 12 -9 19 0 12 25 19 145 42 95 18 175 38 175 44 0 5 -17 7
-37 5 -21 -2 -96 -6 -168 -10 -71 -4 -138 -9 -149 -11 -10 -2 -47 14 -83 36
-36 21 -89 44 -119 51 -51 11 -54 14 -55 43 0 17 -2 49 -4 71 -2 22 -6 83 -10
135 -14 206 -15 215 -28 193z m-32 -699 l0 -39 -59 2 c-33 2 -61 4 -63 6 -2 2
2 18 8 35 11 32 25 38 84 36 28 -1 30 -3 30 -40z m182 33 c1 -2 6 -18 9 -35 6
-30 5 -32 -25 -33 -17 -1 -43 -2 -58 -3 -21 -1 -28 5 -33 24 -12 47 -3 56 52
53 29 -2 53 -5 55 -6z m-347 -7 c0 -6 -7 -26 -14 -45 -13 -31 -19 -35 -50 -35
-20 0 -36 3 -36 6 0 3 14 24 31 45 28 36 69 53 69 29z m457 -7 c7 -10 22 -30
33 -44 l20 -27 -27 -5 c-33 -6 -73 31 -73 68 0 30 26 34 47 8z"/>
<path d="M200 2654 c0 -3 9 -37 21 -75 l21 -69 41 -1 c23 0 50 -2 60 -4 10 -2
55 -6 99 -10 45 -4 91 -9 102 -11 30 -5 82 -12 156 -20 74 -7 101 -12 107 -18
6 -5 -62 -46 -85 -51 -94 -18 -117 -149 -35 -202 53 -35 171 2 229 70 26 31
24 72 -4 93 -12 9 -10 15 10 45 22 32 26 34 63 28 22 -4 69 -10 105 -14 36 -4
67 -8 70 -10 3 -2 29 -6 59 -10 30 -4 63 -9 75 -11 12 -2 37 -7 56 -10 59 -9
244 -44 247 -47 1 -2 0 -13 -3 -25 -4 -13 -24 -30 -51 -43 -70 -34 -97 -115
-61 -182 14 -27 69 -57 103 -57 59 0 143 77 150 137 3 32 -19 93 -34 93 -6 0
-11 14 -11 30 0 17 3 30 8 30 10 0 288 -68 332 -81 87 -26 83 -27 74 22 -4 24
-8 63 -8 86 -1 23 -3 44 -6 46 -3 3 -32 8 -65 11 -33 4 -73 9 -90 11 -16 3
-64 7 -105 10 -41 3 -88 7 -105 9 -34 4 -111 12 -275 26 -112 10 -167 14 -307
25 -38 3 -88 8 -113 10 -51 5 -150 12 -445 31 -66 4 -136 8 -155 10 -19 1 -53
2 -76 3 -39 1 -43 4 -85 66 -24 36 -50 65 -56 65 -7 0 -13 -3 -13 -6z m590
-314 c33 -33 23 -97 -20 -120 -30 -16 -69 -1 -86 32 -38 73 49 145 106 88z
m849 -141 c26 -24 28 -79 4 -107 -10 -11 -33 -23 -50 -27 -28 -6 -38 -2 -63
24 -43 43 -32 103 23 126 35 15 57 10 86 -16z"/>
<path d="M4851 2595 c-38 -56 -49 -65 -75 -66 -52 -2 -288 -16 -386 -24 -30
-2 -95 -7 -145 -10 -94 -6 -170 -12 -270 -20 -33 -3 -94 -7 -135 -10 -41 -3
-91 -7 -110 -10 -19 -2 -69 -7 -110 -10 -93 -7 -196 -17 -315 -30 -22 -2 -71
-7 -110 -11 -38 -3 -79 -8 -90 -9 -11 -1 -32 -3 -47 -4 -27 -1 -28 -3 -28 -59
0 -31 -4 -72 -9 -90 -11 -36 -10 -36 39 -22 64 19 305 79 338 83 27 4 32 2 32
-14 0 -11 -10 -33 -22 -49 -65 -89 28 -232 142 -217 127 17 141 196 18 239
-16 6 -35 23 -43 38 l-14 27 72 13 c40 7 82 14 95 16 12 2 48 8 80 14 31 5 75
12 97 15 22 3 49 8 61 10 11 3 43 7 70 10 27 3 56 8 65 11 9 2 41 7 71 9 51 5
56 3 76 -25 l23 -30 -22 -29 c-27 -37 -20 -61 35 -106 104 -85 211 -77 243 19
22 63 -16 123 -88 141 -14 3 -38 17 -55 30 -28 23 -28 24 -6 26 12 1 25 2 30
3 10 3 108 15 167 22 28 3 64 7 81 9 17 2 62 7 100 11 38 4 80 8 94 9 14 2 37
3 52 4 23 1 28 8 47 70 25 81 25 81 8 81 -6 0 -32 -29 -56 -65z m-422 -261
c45 -57 -17 -147 -79 -114 -43 23 -53 87 -20 120 29 29 74 26 99 -6z m-840
-131 c11 -10 23 -32 26 -50 6 -40 -26 -80 -72 -89 -67 -13 -111 80 -61 133 26
28 77 31 107 6z"/>
</g>
</svg>
