<?xml version="1.0" standalone="no"?>
<!DOCTYPE svg PUBLIC "-//W3C//DTD SVG 20010904//EN"
 "http://www.w3.org/TR/2001/REC-SVG-20010904/DTD/svg10.dtd">
<svg version="1.0" xmlns="http://www.w3.org/2000/svg"
 width="512.000000pt" height="512.000000pt" viewBox="0 0 512.000000 512.000000"
 preserveAspectRatio="xMidYMid meet">
<metadata>
Created by potrace 1.11, written by Peter Selinger 2001-2013
</metadata>
<g transform="translate(0.000000,512.000000) scale(0.100000,-0.100000)"
fill="#000000" stroke="none">
<path d="M1020 4671 c-79 -25 -137 -80 -178 -171 -65 -141 -14 -249 188 -400
18 -14 70 -54 115 -90 46 -36 140 -110 211 -165 70 -55 184 -145 253 -199 69
-55 151 -119 181 -142 30 -24 101 -80 158 -125 l102 -81 -72 -35 c-40 -19
-111 -53 -158 -75 -47 -22 -128 -62 -182 -88 -53 -27 -106 -51 -117 -55 -20
-6 -111 28 -279 106 -35 16 -67 29 -71 29 -4 0 -21 6 -37 14 -16 8 -83 37
-149 65 -66 28 -133 58 -148 66 -28 15 -28 14 -44 -23 -8 -20 -23 -55 -33 -77
-10 -22 -51 -116 -90 -210 -40 -93 -81 -188 -90 -210 -10 -22 -36 -81 -58
-131 l-40 -91 182 -78 c99 -43 204 -88 231 -101 170 -76 503 -215 529 -220 54
-10 117 -11 168 -2 54 10 93 27 363 158 105 51 235 114 290 140 55 26 168 80
250 120 83 40 204 98 270 130 113 54 215 104 593 286 86 42 207 100 267 129
61 29 187 90 280 135 94 45 206 99 250 120 44 21 163 78 265 127 102 49 255
123 340 164 85 41 201 97 257 124 l102 50 -38 80 c-117 246 -164 340 -177 352
-7 8 -19 22 -26 32 -24 33 -107 89 -164 111 -31 11 -87 22 -123 24 -111 6
-111 6 -616 -239 -88 -43 -214 -103 -280 -135 -66 -32 -181 -87 -255 -123 -74
-35 -211 -101 -303 -146 l-168 -81 -122 64 c-67 35 -189 98 -272 141 -166 86
-344 178 -535 277 -69 36 -201 105 -295 153 -237 122 -358 186 -370 195 -26
20 -125 70 -169 84 -58 20 -150 28 -186 17z"/>
<path d="M23 1262 l-23 -3 0 -409 0 -408 1243 1 1242 2 1 403 c0 253 -3 405
-10 409 -9 6 -2411 11 -2453 5z"/>
</g>
</svg>
